# xmcd CD database file
#
# Track frame offsets:
#	182
#	11000
#	22950
#	24957
#	39092
#	51030
#	65565
#	75422
#	87940
#	102227
#	118407
#	126557
#	140945
#	147227
#	158742
#	167620
#	179582
#	190875
#	205017
#
# Disc length: 2811 seconds
#
# Revision: 4
# Processed by: cddbd v1.5.1PL0 Copyright (c) Steve Scherf et al.
# Submitted via: CDex 1.51
#
DISCID=030af913
DTITLE=Michael Martin Murphey - Cowboy Christmas
DYEAR=1991
DGENRE=Christmas
TTITLE0=I Heard The Bells On Christmas Day/Old Time Christmas
TTITLE1=Jolly Old St. Nicholas/The Christmas Letter
TTITLE2=The Creak Of Leather
TTITLE3=Christmas On The Line (The Line Rider's Christmas)
TTITLE4=Sleigh Ride/Jingle Bells
TTITLE5=The Christmas Trail
TTITLE6=Merry Texas Christmas You All
TTITLE7=Ridin' Home On Christmas Eve
TTITLE8=Corn, Water And Wood
TTITLE9=The Cowboy Christmas Ball
TTITLE10=Polka Medley
TTITLE11=Christmas Cowboy Style
TTITLE12=The Santa Claus Schottissche
TTITLE13=Two-Step 'Round The Christmas Tree
TTITLE14=Two-Step Medley
TTITLE15=Log Cabin Home In The Sky
TTITLE16=Waltz Medley
TTITLE17=Pearls In The Snow
TTITLE18=Good Night Ladies/Auld Lang Syne
EXTD=YEAR: 1991
EXTT0=
EXTT1=
EXTT2=
EXTT3=
EXTT4=
EXTT5=
EXTT6=
EXTT7=
EXTT8=
EXTT9=
EXTT10=
EXTT11=
EXTT12=
EXTT13=
EXTT14=
EXTT15=
EXTT16=
EXTT17=
EXTT18=
PLAYORDER=
